<?xml version="1.0" standalone="no"?>
<!DOCTYPE svg PUBLIC "-//W3C//DTD SVG 20010904//EN"
 "http://www.w3.org/TR/2001/REC-SVG-20010904/DTD/svg10.dtd">
<svg version="1.0" xmlns="http://www.w3.org/2000/svg"
 width="416.000000pt" height="416.000000pt" viewBox="0 0 416.000000 416.000000"
 preserveAspectRatio="xMidYMid meet">

<g transform="translate(0.000000,416.000000) scale(0.100000,-0.100000)"
fill="#000000" stroke="none">
<path d="M1805 3721 c-362 -67 -650 -216 -900 -466 -136 -136 -225 -261 -310
-430 -72 -146 -113 -260 -147 -415 -20 -92 -23 -133 -23 -330 0 -247 13 -334
76 -525 41 -126 146 -332 226 -445 87 -121 262 -296 383 -383 113 -80 319
-185 445 -226 191 -63 278 -76 525 -76 247 0 334 13 525 76 126 41 332 146
445 226 121 87 296 262 383 383 80 113 185 319 226 445 63 191 76 278 76 525
0 247 -13 334 -76 525 -41 126 -146 332 -226 445 -87 121 -262 296 -383 383
-178 126 -414 230 -635 277 -144 32 -467 37 -610 11z m-734 -831 c33 -18 17
-130 -22 -150 -51 -28 -80 20 -59 96 16 58 42 75 81 54z m215 -42 c6 -7 28
-75 49 -150 l38 -138 732 0 c632 0 734 -2 745 -15 10 -12 -6 -78 -78 -341 -50
-180 -95 -330 -99 -335 -4 -4 -246 -30 -538 -59 -291 -28 -532 -53 -534 -55
-2 -3 5 -36 15 -75 l18 -70 472 0 c502 0 501 0 492 -47 -2 -14 -15 -19 -56
-21 -44 -3 -52 -6 -52 -23 0 -12 7 -19 19 -19 28 0 30 -17 10 -88 -21 -74 -33
-92 -63 -92 -37 0 -46 19 -46 98 0 65 2 74 20 79 11 3 20 14 20 24 0 18 -14
19 -350 19 -343 0 -350 0 -350 -20 0 -13 7 -20 19 -20 27 0 30 -17 14 -80 -19
-71 -38 -100 -66 -100 -38 0 -47 19 -47 98 0 65 2 74 20 79 11 3 20 14 20 24
0 17 -8 19 -60 19 -53 0 -62 3 -70 23 -5 12 -84 291 -175 620 -90 329 -167
602 -170 607 -3 6 -27 10 -53 10 -58 0 -68 7 -67 44 l0 29 79 -7 c44 -3 85
-11 92 -18z m1597 -402 c8 -20 -119 -477 -135 -487 -7 -5 -16 -9 -19 -9 -3 0
26 115 65 255 39 140 74 255 77 255 4 0 9 -6 12 -14z m-1216 -1128 c20 -22 76
-23 97 -2 9 8 21 36 27 61 13 49 29 42 29 -14 0 -39 -40 -89 -79 -98 -90 -20
-166 94 -108 163 10 13 13 6 15 -39 2 -31 10 -61 19 -71z m739 1 c22 -25 76
-25 98 0 9 10 22 38 29 62 12 40 14 42 21 21 19 -57 -20 -123 -81 -138 -34 -9
-82 15 -104 50 -22 36 -23 54 -7 93 11 28 11 28 19 -20 4 -27 15 -57 25 -68z"/>
<path d="M1416 2403 c13 -48 27 -90 31 -94 12 -11 75 2 70 15 -2 6 -12 46 -22
89 l-19 77 -42 0 -42 0 24 -87z"/>
<path d="M1516 2428 c9 -35 18 -75 21 -90 5 -26 9 -28 55 -28 l50 0 -6 38 c-4
20 -11 61 -17 90 l-10 52 -54 0 -53 0 14 -62z"/>
<path d="M1640 2477 c0 -16 19 -125 26 -149 4 -14 16 -18 55 -18 43 0 50 3 45
18 -2 9 -7 42 -11 72 -11 90 -10 90 -66 90 -34 0 -49 -4 -49 -13z"/>
<path d="M1773 2453 c3 -21 9 -62 13 -92 l7 -53 45 6 c25 3 47 8 49 10 2 2 1
40 -3 85 l-7 81 -55 0 -55 0 6 -37z"/>
<path d="M1906 2418 c8 -101 6 -98 65 -98 43 0 50 3 45 16 -3 9 -6 47 -6 85
l0 69 -55 0 -55 0 6 -72z"/>
<path d="M2034 2453 c3 -21 6 -59 6 -85 l0 -48 50 0 50 0 0 85 0 85 -56 0 -57
0 7 -37z"/>
<path d="M2164 2408 l1 -83 37 1 c65 2 68 5 68 89 l0 75 -54 0 -54 0 2 -82z"/>
<path d="M2296 2453 c-3 -21 -6 -57 -6 -80 l0 -43 49 0 48 0 7 46 c3 26 6 62
6 80 0 34 0 34 -49 34 -48 0 -48 0 -55 -37z"/>
<path d="M2425 2433 c-3 -32 -8 -68 -11 -80 -4 -21 -1 -23 45 -23 55 0 54 0
66 80 4 25 9 53 11 63 5 15 -2 17 -50 17 l-55 0 -6 -57z"/>
<path d="M2551 2414 c-7 -42 -10 -78 -7 -81 3 -3 25 -2 49 1 l44 7 12 57 c7
31 15 65 17 75 5 15 -2 17 -49 17 l-54 0 -12 -76z"/>
<path d="M2678 2415 l-15 -75 38 0 c37 0 39 2 49 43 6 23 15 55 20 71 6 16 10
31 10 32 0 2 -19 4 -43 4 l-43 0 -16 -75z"/>
<path d="M2563 2283 c-18 -2 -33 -5 -34 -6 0 -1 -6 -37 -13 -79 l-12 -78 42 0
42 0 16 69 c19 84 20 101 4 99 -7 0 -28 -3 -45 -5z"/>
<path d="M2636 2219 c-21 -96 -21 -96 14 -91 27 4 32 10 45 56 31 111 31 106
-8 106 l-35 0 -16 -71z"/>
<path d="M2188 2273 c-28 -4 -28 -4 -28 -89 l0 -84 44 0 43 0 7 46 c3 26 6 66
6 90 0 47 -1 48 -72 37z"/>
<path d="M2286 2264 c-3 -9 -6 -48 -6 -87 l0 -72 45 3 c43 4 45 5 45 36 0 17
3 55 6 84 l7 52 -46 0 c-32 0 -47 -5 -51 -16z"/>
<path d="M2406 2258 c-3 -13 -8 -51 -11 -85 l-6 -63 33 0 c49 0 56 9 67 80 15
93 17 90 -34 90 -38 0 -45 -3 -49 -22z"/>
<path d="M1817 2263 c-13 -3 -17 -11 -13 -26 3 -12 8 -52 12 -89 l7 -68 43 0
c50 0 49 -3 37 123 l-6 67 -31 -1 c-17 -1 -39 -3 -49 -6z"/>
<path d="M1925 2218 c3 -29 8 -71 11 -93 l4 -40 46 4 c41 3 45 5 40 25 -3 11
-6 51 -6 89 l0 67 -50 0 -51 0 6 -52z"/>
<path d="M2044 2233 c3 -21 6 -62 6 -90 0 -48 2 -53 23 -53 64 1 67 5 67 96
l0 84 -51 0 -52 0 7 -37z"/>
<path d="M1460 2252 c0 -6 31 -125 46 -174 7 -23 64 -25 64 -4 0 14 -25 132
-36 169 -4 12 -16 17 -40 17 -19 0 -34 -3 -34 -8z"/>
<path d="M1560 2251 c0 -10 27 -133 36 -163 4 -14 16 -18 50 -18 41 0 44 2 39
23 -3 12 -11 54 -18 92 l-12 70 -48 3 c-26 2 -47 -1 -47 -7z"/>
<path d="M1684 2230 c3 -17 11 -60 18 -96 l12 -66 39 5 c21 3 40 7 43 9 2 2
-2 43 -8 91 l-12 87 -49 0 -49 0 6 -30z"/>
<path d="M2614 2072 c-10 -6 -46 -143 -39 -150 1 -2 14 0 27 3 20 5 27 18 41
70 9 35 17 68 17 74 0 12 -29 14 -46 3z"/>
<path d="M2419 2063 l-36 -4 -7 -76 c-4 -41 -5 -77 -3 -79 1 -2 19 -1 39 2 35
6 36 7 42 62 4 31 9 66 12 79 4 13 2 22 -2 21 -5 -1 -25 -3 -45 -5z"/>
<path d="M2482 1993 c-7 -42 -11 -78 -9 -79 2 -2 19 -1 39 2 35 6 36 8 48 66
6 33 14 66 17 74 4 11 -5 14 -39 14 l-44 0 -12 -77z"/>
<path d="M2277 2053 c-4 -3 -7 -42 -7 -86 0 -77 1 -79 23 -73 12 3 27 6 34 6
12 0 16 16 28 113 l6 47 -39 0 c-21 0 -42 -3 -45 -7z"/>
<path d="M2084 2043 l-31 -4 5 -82 c2 -45 5 -83 6 -84 1 -1 19 0 39 4 l37 6 0
83 c0 61 -3 84 -12 82 -7 0 -27 -3 -44 -5z"/>
<path d="M2160 1965 l0 -86 38 7 c20 4 38 7 38 8 1 0 5 36 9 79 l7 77 -46 0
-46 0 0 -85z"/>
<path d="M1949 2035 c-5 -5 8 -166 14 -171 2 -2 20 -1 41 3 36 6 38 8 32 36
-3 16 -6 54 -6 83 l0 54 -38 0 c-21 0 -41 -2 -43 -5z"/>
<path d="M1749 2023 l-25 -4 16 -87 16 -87 34 3 c19 1 36 4 38 7 2 2 -1 42 -8
89 -13 91 -10 88 -71 79z"/>
<path d="M1846 1944 c7 -47 14 -88 16 -90 2 -2 20 -1 39 2 l35 6 -8 66 c-4 37
-7 75 -7 85 -1 13 -10 17 -44 17 l-44 0 13 -86z"/>
<path d="M1618 2015 c-3 -3 4 -45 17 -93 l22 -87 34 3 c19 2 35 5 37 7 2 2 -4
42 -14 89 l-17 86 -37 0 c-20 0 -39 -2 -42 -5z"/>
<path d="M1530 1998 c0 -7 11 -49 23 -93 21 -74 25 -80 47 -77 14 2 26 5 27 6
1 1 -7 41 -18 89 -20 85 -21 87 -50 87 -17 0 -29 -5 -29 -12z"/>
<path d="M1694 1379 c-10 -17 23 -46 37 -32 7 7 9 19 6 27 -7 18 -33 21 -43 5z"/>
<path d="M2434 1379 c-3 -6 0 -17 7 -25 18 -17 44 -2 36 20 -7 18 -33 21 -43
5z"/>
</g>
</svg>
